# xmcd CD database file
#
# Track frame offsets:
#	150
#	16807
#	30792
#	48841
#	67776
#	90673
#	111715
#	128889
#	144024
#	160383
#	183060
#	204990
#
# Disc length: 3011 seconds
#
# Revision: 0
# Processed by: cddbd v1.4PL0 Copyright (c) Steve Scherf et al.
# Submitted via: CDex 1.50
#
DISCID=8c0bc10c
DTITLE=Brendan Milburn and Valerie Vigoda - Groovelily - A reverse retrospective
DYEAR=2000
DGENRE=Blues
TTITLE0=thaw
TTITLE1=i don't wanna fall in love
TTITLE2=can you believe
TTITLE3=coming home
TTITLE4=shannon
TTITLE5=balancing act
TTITLE6=phantom lover
TTITLE7=gotham city breakdown
TTITLE8=you take control
TTITLE9=tell me what's on your mind
TTITLE10=sister siren
TTITLE11=too near the sun
EXTD=YEAR: 2000
EXTT0=
EXTT1=
EXTT2=
EXTT3=
EXTT4=
EXTT5=
EXTT6=
EXTT7=
EXTT8=
EXTT9=
EXTT10=
EXTT11=
PLAYORDER=
